<?xml version="1.0" encoding="utf-8"?>
<!-- Generator: Adobe Illustrator 15.0.0, SVG Export Plug-In  -->
<!DOCTYPE svg PUBLIC "-//W3C//DTD SVG 1.1//EN" "http://www.w3.org/Graphics/SVG/1.1/DTD/svg11.dtd" [
	<!ENTITY ns_flows "http://ns.adobe.com/Flows/1.0/">
]>
<svg version="1.1"
	 xmlns="http://www.w3.org/2000/svg" xmlns:xlink="http://www.w3.org/1999/xlink" xmlns:a="http://ns.adobe.com/AdobeSVGViewerExtensions/3.0/"
	 x="0px" y="0px" width="428px" height="250px" viewBox="0 0 428 250" overflow="visible" enable-background="new 0 0 428 250"
	 xml:space="preserve">
<defs>
</defs>
<rect fill="#FFFFFF" width="428.411" height="250"/>
<rect x="60.764" y="132.353" fill="#FBB03C" width="73.53" height="29.412"/>
<rect x="60.764" y="220.588" fill="#010101" width="73.53" height="29.412"/>
<rect x="60.764" y="176.471" fill="#C1282D" width="73.53" height="29.412"/>
<rect x="60.764" y="88.235" fill="#FAED24" width="73.53" height="29.412"/>
<rect x="60.764" y="44.118" fill="#6CC06C" width="73.53" height="29.411"/>
<rect x="60.764" fill="#399AD5" width="73.53" height="29.411"/>
<rect x="134.294" y="132.353" opacity="0.8" fill="#FBB03C" width="73.529" height="29.412"/>
<rect x="134.294" y="220.588" opacity="0.8" fill="#010101" width="73.529" height="29.412"/>
<rect x="134.294" y="176.471" opacity="0.8" fill="#C1282D" width="73.529" height="29.412"/>
<rect x="134.294" y="88.235" opacity="0.8" fill="#FAED24" width="73.529" height="29.412"/>
<rect x="134.294" y="44.118" opacity="0.8" fill="#6CC06C" width="73.529" height="29.411"/>
<rect x="134.294" opacity="0.8" fill="#399AD5" width="73.529" height="29.411"/>
<rect x="207.823" y="132.353" opacity="0.6" fill="#FBB03C" width="73.529" height="29.412"/>
<rect x="207.823" y="220.588" opacity="0.6" fill="#010101" width="73.529" height="29.412"/>
<rect x="207.823" y="176.471" opacity="0.6" fill="#C1282D" width="73.529" height="29.412"/>
<rect x="207.823" y="88.235" opacity="0.6" fill="#FAED24" width="73.529" height="29.412"/>
<rect x="207.823" y="44.118" opacity="0.6" fill="#6CC06C" width="73.529" height="29.411"/>
<rect x="207.823" opacity="0.6" fill="#399AD5" width="73.529" height="29.411"/>
<rect x="281.353" y="132.353" opacity="0.4" fill="#FBB03C" width="73.529" height="29.412"/>
<rect x="281.353" y="220.588" opacity="0.4" fill="#010101" width="73.529" height="29.412"/>
<rect x="281.353" y="176.471" opacity="0.4" fill="#C1282D" width="73.529" height="29.412"/>
<rect x="281.353" y="88.235" opacity="0.4" fill="#FAED24" width="73.529" height="29.412"/>
<rect x="281.353" y="44.118" opacity="0.4" fill="#6CC06C" width="73.529" height="29.411"/>
<rect x="281.353" opacity="0.4" fill="#399AD5" width="73.529" height="29.411"/>
<rect x="354.882" y="132.353" opacity="0.2" fill="#FBB03C" width="73.529" height="29.412"/>
<rect x="354.882" y="220.588" opacity="0.2" fill="#010101" width="73.529" height="29.412"/>
<rect x="354.882" y="176.471" opacity="0.2" fill="#C1282D" width="73.529" height="29.412"/>
<rect x="354.882" y="88.235" opacity="0.2" fill="#FAED24" width="73.529" height="29.412"/>
<rect x="354.882" y="44.118" opacity="0.2" fill="#6CC06C" width="73.529" height="29.411"/>
<rect x="354.882" opacity="0.2" fill="#399AD5" width="73.529" height="29.411"/>
<text transform="matrix(1 0 0 1 83.5586 18.2598)" fill="#FFFFFF" font-family="'Avenir-Light'" font-size="11.7647">100%</text>
<text transform="matrix(1 0 0 1 0 18.2598)" fill="#010101" font-family="'Avenir-Light'" font-size="11.7647">#2F9BDE</text>
<text transform="matrix(1 0 0 1 2.1592 62.3779)" fill="#010101" font-family="'Avenir-Light'" font-size="11.7647">#47E373</text>
<text transform="matrix(1 0 0 1 0.4355 106.4951)" fill="#010101" font-family="'Avenir-Light'" font-size="11.7647">#FCEE21</text>
<text transform="matrix(1 0 0 1 0.4355 150.6123)" fill="#010101" font-family="'Avenir-Light'" font-size="11.7647">#FBB03B</text>
<text transform="matrix(1 0 0 1 160.1475 18.2598)" fill="#FFFFFF" font-family="'Avenir-Light'" font-size="11.7647">80%</text>
<text transform="matrix(1 0 0 1 233.6768 18.2598)" fill="#FFFFFF" font-family="'Avenir-Light'" font-size="11.7647">60%</text>
<text transform="matrix(1 0 0 1 307.2061 18.2598)" fill="#FFFFFF" font-family="'Avenir-Light'" font-size="11.7647">40%</text>
<text transform="matrix(1 0 0 1 380.7354 18.2598)" fill="#FFFFFF" font-family="'Avenir-Light'" font-size="11.7647">20%</text>
<text transform="matrix(1 0 0 1 83.5586 62.3779)" fill="#FFFFFF" font-family="'Avenir-Light'" font-size="11.7647">100%</text>
<text transform="matrix(1 0 0 1 160.1475 62.3779)" fill="#FFFFFF" font-family="'Avenir-Light'" font-size="11.7647">80%</text>
<text transform="matrix(1 0 0 1 233.6768 62.3779)" fill="#FFFFFF" font-family="'Avenir-Light'" font-size="11.7647">60%</text>
<text transform="matrix(1 0 0 1 307.2061 62.3779)" fill="#FFFFFF" font-family="'Avenir-Light'" font-size="11.7647">40%</text>
<text transform="matrix(1 0 0 1 380.7354 62.3779)" fill="#FFFFFF" font-family="'Avenir-Light'" font-size="11.7647">20%</text>
<text transform="matrix(1 0 0 1 83.5586 106.4951)" fill="#FFFFFF" font-family="'Avenir-Light'" font-size="11.7647">100%</text>
<text transform="matrix(1 0 0 1 160.1475 106.4951)" fill="#FFFFFF" font-family="'Avenir-Light'" font-size="11.7647">80%</text>
<text transform="matrix(1 0 0 1 233.6768 106.4951)" fill="#FFFFFF" font-family="'Avenir-Light'" font-size="11.7647">60%</text>
<text transform="matrix(1 0 0 1 307.2061 106.4951)" fill="#FFFFFF" font-family="'Avenir-Light'" font-size="11.7647">40%</text>
<text transform="matrix(1 0 0 1 380.7354 106.4951)" fill="#FFFFFF" font-family="'Avenir-Light'" font-size="11.7647">20%</text>
<text transform="matrix(1 0 0 1 83.5586 150.6123)" fill="#FFFFFF" font-family="'Avenir-Light'" font-size="11.7647">100%</text>
<text transform="matrix(1 0 0 1 160.1475 150.6123)" fill="#FFFFFF" font-family="'Avenir-Light'" font-size="11.7647">80%</text>
<text transform="matrix(1 0 0 1 233.6768 150.6123)" fill="#FFFFFF" font-family="'Avenir-Light'" font-size="11.7647">60%</text>
<text transform="matrix(1 0 0 1 307.2061 150.6123)" fill="#FFFFFF" font-family="'Avenir-Light'" font-size="11.7647">40%</text>
<text transform="matrix(1 0 0 1 380.7354 150.6123)" fill="#FFFFFF" font-family="'Avenir-Light'" font-size="11.7647">20%</text>
<text transform="matrix(1 0 0 1 83.5586 194.7305)" fill="#FFFFFF" font-family="'Avenir-Light'" font-size="11.7647">100%</text>
<text transform="matrix(1 0 0 1 160.1475 194.7305)" fill="#FFFFFF" font-family="'Avenir-Light'" font-size="11.7647">80%</text>
<text transform="matrix(1 0 0 1 233.6768 194.7305)" fill="#FFFFFF" font-family="'Avenir-Light'" font-size="11.7647">60%</text>
<text transform="matrix(1 0 0 1 307.2061 194.7305)" fill="#FFFFFF" font-family="'Avenir-Light'" font-size="11.7647">40%</text>
<text transform="matrix(1 0 0 1 380.7354 194.7305)" fill="#FFFFFF" font-family="'Avenir-Light'" font-size="11.7647">20%</text>
<text transform="matrix(1 0 0 1 83.5586 238.8477)" fill="#FFFFFF" font-family="'Avenir-Light'" font-size="11.7647">100%</text>
<text transform="matrix(1 0 0 1 160.1475 238.8477)" fill="#FFFFFF" font-family="'Avenir-Light'" font-size="11.7647">80%</text>
<text transform="matrix(1 0 0 1 233.6768 238.8477)" fill="#FFFFFF" font-family="'Avenir-Light'" font-size="11.7647">60%</text>
<text transform="matrix(1 0 0 1 307.2061 238.8477)" fill="#FFFFFF" font-family="'Avenir-Light'" font-size="11.7647">40%</text>
<text transform="matrix(1 0 0 1 380.7354 238.8477)" fill="#FFFFFF" font-family="'Avenir-Light'" font-size="11.7647">20%</text>
<text transform="matrix(1 0 0 1 0.2061 194.7305)" fill="#010101" font-family="'Avenir-Light'" font-size="11.7647">#C1272D</text>
<text transform="matrix(1 0 0 1 2.5889 238.8477)" fill="#010101" font-family="'Avenir-Light'" font-size="11.7647">#000000</text>
</svg>
