<?xml version="1.0" encoding="utf-8"?>
<!-- Generator: Adobe Illustrator 15.0.0, SVG Export Plug-In  -->
<!DOCTYPE svg PUBLIC "-//W3C//DTD SVG 1.1//EN" "http://www.w3.org/Graphics/SVG/1.1/DTD/svg11.dtd" [
	<!ENTITY ns_flows "http://ns.adobe.com/Flows/1.0/">
]>
<svg version="1.1"
	 xmlns="http://www.w3.org/2000/svg" xmlns:xlink="http://www.w3.org/1999/xlink" xmlns:a="http://ns.adobe.com/AdobeSVGViewerExtensions/3.0/"
	 x="0px" y="0px" width="650px" height="700px" viewBox="-31.349 -28.816 650 700"
	 overflow="visible" enable-background="new -31.349 -28.816 650 700" xml:space="preserve">
<defs>
</defs>
<g opacity="0.2">
	<rect x="385.432" y="1.035" fill="#00AEEF" width="200.871" height="640.332"/>
	<g>
		<polyline fill="none" stroke="#000000" stroke-width="2" stroke-miterlimit="10" points="586.303,639.367 586.303,641.367 
			584.303,641.367 		"/>
		
			<line fill="none" stroke="#000000" stroke-width="2" stroke-miterlimit="10" stroke-dasharray="4.0592,2.0296" x1="582.273" y1="641.367" x2="388.446" y2="641.367"/>
		<polyline fill="none" stroke="#000000" stroke-width="2" stroke-miterlimit="10" points="387.432,641.367 385.432,641.367 
			385.432,639.367 		"/>
		
			<line fill="none" stroke="#000000" stroke-width="2" stroke-miterlimit="10" stroke-dasharray="3.9895,1.9948" x1="385.432" y1="637.372" x2="385.432" y2="4.032"/>
		<polyline fill="none" stroke="#000000" stroke-width="2" stroke-miterlimit="10" points="385.432,3.035 385.432,1.035 
			387.432,1.035 		"/>
		
			<line fill="none" stroke="#000000" stroke-width="2" stroke-miterlimit="10" stroke-dasharray="4.0592,2.0296" x1="389.461" y1="1.035" x2="583.288" y2="1.035"/>
		<polyline fill="none" stroke="#000000" stroke-width="2" stroke-miterlimit="10" points="584.303,1.035 586.303,1.035 
			586.303,3.035 		"/>
		
			<line fill="none" stroke="#000000" stroke-width="2" stroke-miterlimit="10" stroke-dasharray="3.9895,1.9948" x1="586.303" y1="5.03" x2="586.303" y2="638.37"/>
	</g>
</g>
<g opacity="0.2">
	<rect x="288.049" y="1" fill="#00A651" width="202.92" height="264.234"/>
	<g>
		<polyline fill="none" stroke="#000000" stroke-width="2" stroke-miterlimit="10" points="490.969,263.234 490.969,265.234 
			488.969,265.234 		"/>
		
			<line fill="none" stroke="#000000" stroke-width="2" stroke-miterlimit="10" stroke-dasharray="3.9784,1.9892" x1="486.979" y1="265.234" x2="291.043" y2="265.234"/>
		<polyline fill="none" stroke="#000000" stroke-width="2" stroke-miterlimit="10" points="290.049,265.234 288.049,265.234 
			288.049,263.234 		"/>
		
			<line fill="none" stroke="#000000" stroke-width="2" stroke-miterlimit="10" stroke-dasharray="4.0036,2.0018" x1="288.049" y1="261.232" x2="288.049" y2="4.001"/>
		<polyline fill="none" stroke="#000000" stroke-width="2" stroke-miterlimit="10" points="288.049,3 288.049,1 290.049,1 		"/>
		
			<line fill="none" stroke="#000000" stroke-width="2" stroke-miterlimit="10" stroke-dasharray="3.9784,1.9892" x1="292.038" y1="1" x2="487.974" y2="1"/>
		<polyline fill="none" stroke="#000000" stroke-width="2" stroke-miterlimit="10" points="488.969,1 490.969,1 490.969,3 		"/>
		
			<line fill="none" stroke="#000000" stroke-width="2" stroke-miterlimit="10" stroke-dasharray="4.0036,2.0018" x1="490.969" y1="5.002" x2="490.969" y2="262.233"/>
	</g>
</g>
<g opacity="0.2">
	<polyline fill="#ED1C24" points="384.865,252.801 300.967,252.801 300.967,1.035 1,1.035 1,578.752 396.636,578.752 
		396.636,252.419 	"/>
	<g>
		
			<line fill="none" stroke="#000000" stroke-width="2" stroke-miterlimit="10" x1="384.865" y1="252.801" x2="382.865" y2="252.801"/>
		
			<line fill="none" stroke="#000000" stroke-width="2" stroke-miterlimit="10" stroke-dasharray="3.9949,1.9975" x1="380.868" y1="252.801" x2="303.966" y2="252.801"/>
		<polyline fill="none" stroke="#000000" stroke-width="2" stroke-miterlimit="10" points="302.967,252.801 300.967,252.801 
			300.967,250.801 		"/>
		
			<line fill="none" stroke="#000000" stroke-width="2" stroke-miterlimit="10" stroke-dasharray="3.9962,1.9981" x1="300.967" y1="248.803" x2="300.967" y2="4.034"/>
		<polyline fill="none" stroke="#000000" stroke-width="2" stroke-miterlimit="10" points="300.967,3.035 300.967,1.035 
			298.967,1.035 		"/>
		
			<line fill="none" stroke="#000000" stroke-width="2" stroke-miterlimit="10" stroke-dasharray="3.9996,1.9998" x1="296.967" y1="1.035" x2="4" y2="1.035"/>
		<polyline fill="none" stroke="#000000" stroke-width="2" stroke-miterlimit="10" points="3,1.035 1,1.035 1,3.035 		"/>
		
			<line fill="none" stroke="#000000" stroke-width="2" stroke-miterlimit="10" stroke-dasharray="4.012,2.006" x1="1" y1="5.041" x2="1" y2="575.749"/>
		<polyline fill="none" stroke="#000000" stroke-width="2" stroke-miterlimit="10" points="1,576.752 1,578.752 3,578.752 		"/>
		
			<line fill="none" stroke="#000000" stroke-width="2" stroke-miterlimit="10" stroke-dasharray="3.9963,1.9981" x1="4.998" y1="578.752" x2="393.637" y2="578.752"/>
		<polyline fill="none" stroke="#000000" stroke-width="2" stroke-miterlimit="10" points="394.636,578.752 396.636,578.752 
			396.636,576.752 		"/>
		
			<line fill="none" stroke="#000000" stroke-width="2" stroke-miterlimit="10" stroke-dasharray="4.0292,2.0146" x1="396.636" y1="574.737" x2="396.636" y2="255.426"/>
		
			<line fill="none" stroke="#000000" stroke-width="2" stroke-miterlimit="10" x1="396.636" y1="254.419" x2="396.636" y2="252.419"/>
	</g>
</g>
<rect x="301.713" y="13.578" fill="#FFFFFF" stroke="#000000" stroke-miterlimit="10" width="274.07" height="50.178"/>
<rect x="338.173" y="26.08" fill="none" width="200.592" height="28.519"/>
<text transform="matrix(1 0 0 1 339.1553 33.2695)"><tspan x="0" y="0" font-family="'Swiss721BT-Light'" font-size="10">What cocktails can I make with {ingredient 1}, </tspan><tspan x="58.305" y="12" font-family="'Swiss721BT-Light'" font-size="10">{ingredient 2}, etc.</tspan></text>
<g>
	<g>
		<line fill="none" stroke="#000000" stroke-miterlimit="10" x1="391.123" y1="64.301" x2="391.123" y2="75.099"/>
		<g>
			<path d="M386.092,68.687c0-0.165,0.082-0.327,0.231-0.423c0.232-0.148,0.542-0.079,0.69,0.154l4.109,6.452l4.109-6.452
				c0.148-0.233,0.458-0.303,0.69-0.154s0.3,0.46,0.153,0.691l-4.531,7.114c-0.092,0.144-0.251,0.231-0.422,0.231
				s-0.33-0.088-0.422-0.231l-4.531-7.114C386.117,68.871,386.092,68.778,386.092,68.687
				C386.092,68.521,386.092,68.778,386.092,68.687z"/>
		</g>
	</g>
</g>
<g>
	<g>
		<line fill="none" stroke="#000000" stroke-miterlimit="10" x1="343.031" y1="189.967" x2="343.031" y2="200.765"/>
		<g>
			<path d="M338,194.353c0-0.165,0.082-0.327,0.231-0.423c0.232-0.148,0.542-0.079,0.69,0.154l4.109,6.452l4.109-6.452
				c0.148-0.233,0.458-0.303,0.69-0.154s0.3,0.46,0.153,0.691l-4.531,7.114c-0.092,0.144-0.251,0.231-0.422,0.231
				s-0.33-0.088-0.422-0.231l-4.531-7.114C338.025,194.537,338,194.444,338,194.353C338,194.188,338,194.444,338,194.353z"/>
		</g>
	</g>
</g>
<g>
	<g>
		<line fill="none" stroke="#000000" stroke-miterlimit="10" x1="343.352" y1="252.801" x2="343.352" y2="263.599"/>
		<g>
			<path d="M338.32,257.187c0-0.165,0.082-0.327,0.231-0.423c0.232-0.148,0.542-0.079,0.69,0.154l4.109,6.452l4.109-6.452
				c0.148-0.233,0.458-0.303,0.69-0.154s0.3,0.46,0.153,0.691l-4.531,7.114c-0.092,0.144-0.251,0.231-0.422,0.231
				s-0.33-0.088-0.422-0.231l-4.531-7.114C338.346,257.371,338.32,257.278,338.32,257.187
				C338.32,257.021,338.32,257.278,338.32,257.187z"/>
		</g>
	</g>
</g>
<rect x="301.713" y="76.301" fill="#BCBEC0" stroke="#000000" stroke-miterlimit="10" width="178.819" height="113.666"/>
<rect x="305.957" y="103.802" fill="none" width="169.816" height="58.665"/>
<text transform="matrix(1 0 0 1 313.8428 110.9912)"><tspan x="0" y="0" font-family="'Swiss721BT-Light'" font-size="10">You can make {drink name}, {drink </tspan><tspan x="-4.592" y="12" font-family="'Swiss721BT-Light'" font-size="10">name}, etc. Say the name of the drink </tspan><tspan x="4.752" y="24" font-family="'Swiss721BT-Light'" font-size="10">you’d like to make. Or I can share </tspan><tspan x="-5.277" y="36" font-family="'Swiss721BT-Light'" font-size="10">additional ingredients that would allow </tspan><tspan x="11.178" y="48" font-family="'Swiss721BT-Light'" font-size="10">you to make {alt drink names}</tspan></text>
<rect x="301.838" y="201.967" fill="#FFFFFF" stroke="#000000" stroke-miterlimit="10" width="83.027" height="50.834"/>
<rect x="312.221" y="222.391" fill="none" width="62.262" height="11.99"/>
<text transform="matrix(1 0 0 1 312.835 229.5801)" font-family="'Swiss721BT-Light'" font-size="10">{Drink Name}</text>
<rect x="205.869" y="265.234" fill="#BCBEC0" stroke="#000000" stroke-miterlimit="10" width="177.943" height="49.033"/>
<rect x="208.567" y="273.307" fill="none" width="173.261" height="34.326"/>
<text transform="matrix(1 0 0 1 223.7642 280.4951)"><tspan x="0" y="0" font-family="'Swiss721BT-Light'" font-size="10">A {drink name} is {ingredient 1}, </tspan><tspan x="-8.576" y="12" font-family="'Swiss721BT-Light'" font-size="10">{ingredient 2}, {etc.}. Would you like </tspan><tspan x="36.253" y="24" font-family="'Swiss721BT-Light'" font-size="10">the instructions?</tspan></text>
<rect x="225.023" y="339.908" fill="#FFFFFF" stroke="#000000" stroke-miterlimit="10" width="41.833" height="25.418"/>
<rect x="227.356" y="347.676" fill="none" width="37.167" height="11.887"/>
<text transform="matrix(1 0 0 1 239.6289 354.8643)" font-family="'Swiss721BT-Light'" font-size="10">No</text>
<rect x="322.115" y="339.908" fill="#FFFFFF" stroke="#000000" stroke-miterlimit="10" width="41.833" height="25.418"/>
<rect x="324.448" y="347.676" fill="none" width="37.167" height="11.887"/>
<text transform="matrix(1 0 0 1 335.126 354.8643)" font-family="'Swiss721BT-Light'" font-size="10">Yes</text>
<g>
	<g>
		<line fill="none" stroke="#000000" stroke-miterlimit="10" x1="343.032" y1="314.268" x2="343.032" y2="338.706"/>
		<g>
			<path d="M338.001,332.294c0-0.165,0.082-0.327,0.231-0.423c0.232-0.148,0.542-0.079,0.69,0.154l4.109,6.452l4.109-6.452
				c0.148-0.233,0.458-0.303,0.69-0.154s0.3,0.46,0.153,0.691l-4.531,7.114c-0.092,0.144-0.251,0.231-0.422,0.231
				s-0.33-0.088-0.422-0.231l-4.531-7.114C338.026,332.479,338.001,332.386,338.001,332.294
				C338.001,332.129,338.001,332.386,338.001,332.294z"/>
		</g>
	</g>
</g>
<g>
	<g>
		<line fill="none" stroke="#000000" stroke-miterlimit="10" x1="343.032" y1="365.215" x2="343.032" y2="389.653"/>
		<g>
			<path d="M338.001,383.241c0-0.165,0.082-0.327,0.231-0.423c0.232-0.148,0.542-0.079,0.69,0.154l4.109,6.452l4.109-6.452
				c0.148-0.233,0.458-0.303,0.69-0.154s0.3,0.46,0.153,0.691l-4.531,7.114c-0.092,0.144-0.251,0.231-0.422,0.231
				s-0.33-0.088-0.422-0.231l-4.531-7.114C338.026,383.426,338.001,383.333,338.001,383.241
				C338.001,383.076,338.001,383.333,338.001,383.241z"/>
		</g>
	</g>
</g>
<g>
	<g>
		<line fill="none" stroke="#000000" stroke-miterlimit="10" x1="245.524" y1="314.381" x2="245.524" y2="338.819"/>
		<g>
			<path d="M240.493,332.407c0-0.165,0.082-0.327,0.231-0.423c0.232-0.148,0.542-0.079,0.69,0.154l4.109,6.452l4.109-6.452
				c0.148-0.233,0.458-0.303,0.69-0.154s0.3,0.46,0.153,0.691l-4.531,7.114c-0.092,0.144-0.251,0.231-0.422,0.231
				s-0.33-0.088-0.422-0.231l-4.531-7.114C240.519,332.592,240.493,332.499,240.493,332.407
				C240.493,332.242,240.493,332.499,240.493,332.407z"/>
		</g>
	</g>
</g>
<g>
	<g>
		<line fill="none" stroke="#000000" stroke-miterlimit="10" x1="343.515" y1="441.24" x2="343.515" y2="465.681"/>
		<g>
			<path d="M338.483,459.269c0-0.165,0.082-0.327,0.231-0.423c0.232-0.148,0.542-0.079,0.69,0.154l4.109,6.452l4.109-6.452
				c0.148-0.233,0.458-0.303,0.69-0.154s0.3,0.46,0.153,0.691l-4.531,7.114c-0.092,0.144-0.251,0.231-0.422,0.231
				s-0.33-0.088-0.422-0.231l-4.531-7.114C338.509,459.453,338.483,459.36,338.483,459.269
				C338.483,459.104,338.483,459.36,338.483,459.269z"/>
		</g>
	</g>
</g>
<g>
	<g>
		<line fill="none" stroke="#000000" stroke-miterlimit="10" x1="343.515" y1="492.299" x2="343.515" y2="526.673"/>
		<g>
			<path d="M338.483,520.261c0-0.165,0.082-0.327,0.231-0.423c0.232-0.148,0.542-0.079,0.69,0.154l4.109,6.452l4.109-6.452
				c0.148-0.233,0.458-0.303,0.69-0.154s0.3,0.46,0.153,0.691l-4.531,7.114c-0.092,0.144-0.251,0.231-0.422,0.231
				s-0.33-0.088-0.422-0.231l-4.531-7.114C338.509,520.445,338.483,520.353,338.483,520.261
				C338.483,520.096,338.483,520.353,338.483,520.261z"/>
		</g>
	</g>
</g>
<g>
	<g>
		<line fill="none" stroke="#000000" stroke-miterlimit="10" x1="246.007" y1="441.354" x2="246.007" y2="465.794"/>
		<g>
			<path d="M240.976,459.382c0-0.165,0.082-0.327,0.231-0.423c0.232-0.148,0.542-0.079,0.69,0.154l4.109,6.452l4.109-6.452
				c0.148-0.233,0.458-0.303,0.69-0.154s0.3,0.46,0.153,0.691l-4.531,7.114c-0.092,0.144-0.251,0.231-0.422,0.231
				s-0.33-0.088-0.422-0.231l-4.531-7.114C241.001,459.566,240.976,459.474,240.976,459.382
				C240.976,459.217,240.976,459.474,240.976,459.382z"/>
		</g>
	</g>
</g>
<g>
	<g>
		<line fill="none" stroke="#000000" stroke-miterlimit="10" x1="246.007" y1="490.881" x2="246.007" y2="515.319"/>
		<g>
			<path d="M240.976,508.907c0-0.165,0.082-0.327,0.231-0.423c0.232-0.148,0.542-0.079,0.69,0.154l4.109,6.452l4.109-6.452
				c0.148-0.233,0.458-0.303,0.69-0.154s0.3,0.46,0.153,0.691l-4.531,7.114c-0.092,0.144-0.251,0.231-0.422,0.231
				s-0.33-0.088-0.422-0.231l-4.531-7.114C241.001,509.092,240.976,508.999,240.976,508.907
				C240.976,508.742,240.976,508.999,240.976,508.907z"/>
		</g>
	</g>
</g>
<rect x="205.302" y="390.613" fill="#BCBEC0" stroke="#000000" stroke-miterlimit="10" width="179.333" height="50.627"/>
<rect x="205.302" y="393.617" fill="none" width="176.663" height="47.736"/>
<text transform="matrix(1 0 0 1 209.9663 400.8076)"><tspan x="0" y="0" font-family="'Swiss721BT-Light'" font-size="10">The instructions for a {drink name} are </tspan><tspan x="50.195" y="12" font-family="'Swiss721BT-Light'" font-size="10">{instuctions...}. </tspan><tspan x="9.349" y="24" font-family="'Swiss721BT-Light'" font-size="10">You can also check the Alexa app.</tspan><tspan x="17.454" y="36" font-family="'Swiss721BT-Light'" font-size="10">Would you like another recipe?</tspan></text>
<rect x="205.302" y="516.521" fill="#BCBEC0" stroke="#000000" stroke-miterlimit="10" width="82.614" height="50.014"/>
<rect x="205.302" y="531.703" fill="none" width="83.202" height="23.662"/>
<text transform="matrix(1 0 0 1 207.4502 538.8926)"><tspan x="0" y="0" font-family="'Swiss721BT-Light'" font-size="10">Which drink would </tspan><tspan x="1.986" y="12" font-family="'Swiss721BT-Light'" font-size="10">you like to make?</tspan></text>
<g>
	<g>
		<polyline fill="none" stroke="#000000" stroke-miterlimit="10" points="205.302,543.535 55.1,543.535 55.1,287.467 204.1,287.467 
					"/>
		<g>
			<path d="M197.688,292.498c-0.165,0-0.327-0.082-0.422-0.231c-0.148-0.232-0.08-0.542,0.153-0.69l6.453-4.109l-6.453-4.109
				c-0.233-0.148-0.302-0.458-0.153-0.69s0.459-0.3,0.69-0.153l7.115,4.531c0.144,0.092,0.231,0.251,0.231,0.422
				s-0.087,0.33-0.231,0.422l-7.115,4.531C197.873,292.473,197.779,292.498,197.688,292.498
				C197.522,292.498,197.779,292.498,197.688,292.498z"/>
		</g>
	</g>
</g>
<rect x="13.969" y="390.613" fill="#FFFFFF" stroke="#000000" stroke-miterlimit="10" width="83.328" height="50.254"/>
<rect x="17.907" y="411.66" fill="none" width="74.945" height="14.988"/>
<text transform="matrix(1 0 0 1 25.689 418.8496)" font-family="'Swiss721BT-Light'" font-size="10">{Drink name}</text>
<rect x="225.506" y="466.883" fill="#FFFFFF" stroke="#000000" stroke-miterlimit="10" width="41.833" height="25.416"/>
<rect x="227.839" y="474.648" fill="none" width="37.167" height="11.887"/>
<text transform="matrix(1 0 0 1 238.5166 481.8379)" font-family="'Swiss721BT-Light'" font-size="10">Yes</text>
<rect x="322.598" y="466.883" fill="#FFFFFF" stroke="#000000" stroke-miterlimit="10" width="41.833" height="25.416"/>
<rect x="324.931" y="474.648" fill="none" width="37.167" height="11.887"/>
<text transform="matrix(1 0 0 1 337.2031 481.8379)" font-family="'Swiss721BT-Light'" font-size="10">No</text>
<rect x="129.127" y="403.219" fill="#414042" stroke="#000000" stroke-miterlimit="10" width="41.833" height="25.416"/>
<rect x="131.46" y="410.984" fill="none" width="37.167" height="11.887"/>
<text transform="matrix(1 0 0 1 140.2393 418.1738)" fill="#FFFFFF" font-family="'Swiss721BT-Light'" font-size="10">EXIT</text>
<rect x="322.598" y="528.82" fill="#414042" stroke="#000000" stroke-miterlimit="10" width="41.833" height="25.416"/>
<rect x="324.931" y="536.586" fill="none" width="37.167" height="11.887"/>
<text transform="matrix(1 0 0 1 333.71 543.7754)" fill="#FFFFFF" font-family="'Swiss721BT-Light'" font-size="10">EXIT</text>
<rect x="397.661" y="200.875" fill="#FFFFFF" stroke="#000000" stroke-miterlimit="10" width="83.667" height="51.544"/>
<rect x="397.494" y="223.896" fill="none" width="83.834" height="11.992"/>
<text transform="matrix(1 0 0 1 402.001 231.0859)" font-family="'Swiss721BT-Light'" font-size="10">Other Ingredients</text>
<rect x="396.803" y="264.418" fill="#BCBEC0" stroke="#000000" stroke-miterlimit="10" width="179.333" height="113.668"/>
<rect x="401.355" y="277.812" fill="none" width="170.229" height="84.861"/>
<text transform="matrix(1 0 0 1 409.4482 285.002)"><tspan x="0" y="0" font-family="'Swiss721BT-Light'" font-size="10">You can make {drink name}, {drink </tspan><tspan x="-3.293" y="12" font-family="'Swiss721BT-Light'" font-size="10">name}, etc. if you buy {ingredient}. If </tspan><tspan x="-5.207" y="24" font-family="'Swiss721BT-Light'" font-size="10">you buy {ingredient} and {ingredient} </tspan><tspan x="4.6" y="36" font-family="'Swiss721BT-Light'" font-size="10">you can also make {drink name}, </tspan><tspan x="-0.812" y="48" font-family="'Swiss721BT-Light'" font-size="10">{drink name}, etc. Would you like to </tspan><tspan x="-7.674" y="60" font-family="'Swiss721BT-Light'" font-size="10">purchase additional ingredients via one </tspan><tspan x="42.944" y="72" font-family="'Swiss721BT-Light'" font-size="10">of our partners?</tspan></text>
<rect x="396.636" y="515.703" fill="#BCBEC0" stroke="#000000" stroke-miterlimit="10" width="83.834" height="50.604"/>
<rect x="398.836" y="519.801" fill="none" width="79.321" height="43.562"/>
<text transform="matrix(1 0 0 1 403.4697 526.9912)"><tspan x="0" y="0" font-family="'Swiss721BT-Light'" font-size="10">Great! Authorize </tspan><tspan x="9.819" y="12" font-family="'Swiss721BT-Light'" font-size="10">via the app. </tspan><tspan x="-4.354" y="24" font-family="'Swiss721BT-Light'" font-size="10">Would you like the </tspan><tspan x="7.886" y="36" font-family="'Swiss721BT-Light'" font-size="10">instructions?</tspan></text>
<g>
	<g>
		<line fill="none" stroke="#000000" stroke-miterlimit="10" x1="439.411" y1="189.802" x2="439.411" y2="200.6"/>
		<g>
			<path d="M434.38,194.188c0-0.165,0.082-0.326,0.231-0.422c0.232-0.148,0.542-0.08,0.69,0.152l4.109,6.453l4.109-6.453
				c0.148-0.232,0.458-0.301,0.69-0.152s0.3,0.459,0.153,0.689l-4.531,7.115c-0.092,0.145-0.251,0.231-0.422,0.231
				s-0.33-0.087-0.422-0.231l-4.531-7.115C434.405,194.373,434.38,194.279,434.38,194.188
				C434.38,194.022,434.38,194.279,434.38,194.188z"/>
		</g>
	</g>
</g>
<g>
	<g>
		<line fill="none" stroke="#000000" stroke-miterlimit="10" x1="439.411" y1="252.367" x2="439.411" y2="263.165"/>
		<g>
			<path d="M434.38,256.753c0-0.165,0.082-0.327,0.231-0.423c0.232-0.148,0.542-0.079,0.69,0.154l4.109,6.452l4.109-6.452
				c0.148-0.233,0.458-0.303,0.69-0.154s0.3,0.46,0.153,0.691l-4.531,7.114c-0.092,0.144-0.251,0.231-0.422,0.231
				s-0.33-0.088-0.422-0.231l-4.531-7.114C434.405,256.938,434.38,256.845,434.38,256.753
				C434.38,256.588,434.38,256.845,434.38,256.753z"/>
		</g>
	</g>
</g>
<g>
	<g>
		<line fill="none" stroke="#000000" stroke-miterlimit="10" x1="535.016" y1="378.084" x2="535.016" y2="402.522"/>
		<g>
			<path d="M529.984,396.11c0-0.165,0.082-0.327,0.231-0.423c0.232-0.148,0.542-0.079,0.69,0.154l4.109,6.452l4.109-6.452
				c0.148-0.233,0.458-0.303,0.69-0.154s0.3,0.46,0.153,0.691l-4.531,7.114c-0.092,0.144-0.251,0.231-0.422,0.231
				s-0.33-0.088-0.422-0.231l-4.531-7.114C530.01,396.295,529.984,396.202,529.984,396.11
				C529.984,395.945,529.984,396.202,529.984,396.11z"/>
		</g>
	</g>
</g>
<g>
	<g>
		<line fill="none" stroke="#000000" stroke-miterlimit="10" x1="437.508" y1="378.197" x2="437.508" y2="402.636"/>
		<g>
			<path d="M432.477,396.224c0-0.165,0.082-0.327,0.231-0.423c0.232-0.148,0.542-0.079,0.69,0.154l4.109,6.452l4.109-6.452
				c0.148-0.233,0.458-0.303,0.69-0.154s0.3,0.46,0.153,0.691l-4.531,7.114c-0.092,0.144-0.251,0.231-0.422,0.231
				s-0.33-0.088-0.422-0.231l-4.531-7.114C432.502,396.408,432.477,396.315,432.477,396.224
				C432.477,396.059,432.477,396.315,432.477,396.224z"/>
		</g>
	</g>
</g>
<g>
	<g>
		<line fill="none" stroke="#000000" stroke-miterlimit="10" x1="437.508" y1="425.922" x2="437.508" y2="515.319"/>
		<g>
			<path d="M432.477,508.907c0-0.165,0.082-0.327,0.231-0.423c0.232-0.148,0.542-0.079,0.69,0.154l4.109,6.452l4.109-6.452
				c0.148-0.233,0.458-0.303,0.69-0.154s0.3,0.46,0.153,0.691l-4.531,7.114c-0.092,0.144-0.251,0.231-0.422,0.231
				s-0.33-0.088-0.422-0.231l-4.531-7.114C432.502,509.092,432.477,508.999,432.477,508.907
				C432.477,508.742,432.477,508.999,432.477,508.907z"/>
		</g>
	</g>
</g>
<rect x="417.007" y="403.725" fill="#FFFFFF" stroke="#000000" stroke-miterlimit="10" width="41.833" height="25.416"/>
<rect x="419.34" y="411.49" fill="none" width="37.167" height="11.887"/>
<text transform="matrix(1 0 0 1 430.0176 418.6807)" font-family="'Swiss721BT-Light'" font-size="10">Yes</text>
<rect x="514.099" y="403.725" fill="#FFFFFF" stroke="#000000" stroke-miterlimit="10" width="41.833" height="25.416"/>
<rect x="516.432" y="411.49" fill="none" width="37.167" height="11.887"/>
<text transform="matrix(1 0 0 1 528.7041 418.6807)" font-family="'Swiss721BT-Light'" font-size="10">No</text>
<g>
	<g>
		<line fill="none" stroke="#000000" stroke-miterlimit="10" x1="534.304" y1="429.26" x2="534.304" y2="463.634"/>
		<g>
			<path d="M529.272,457.222c0-0.165,0.082-0.327,0.231-0.423c0.232-0.148,0.542-0.079,0.69,0.154l4.109,6.452l4.109-6.452
				c0.148-0.233,0.458-0.303,0.69-0.154s0.3,0.46,0.153,0.691l-4.531,7.114c-0.092,0.144-0.251,0.231-0.422,0.231
				s-0.33-0.088-0.422-0.231l-4.531-7.114C529.298,457.406,529.272,457.313,529.272,457.222
				C529.272,457.057,529.272,457.313,529.272,457.222z"/>
		</g>
	</g>
</g>
<rect x="513.387" y="465.781" fill="#414042" stroke="#000000" stroke-miterlimit="10" width="41.833" height="25.416"/>
<rect x="515.72" y="473.547" fill="none" width="37.167" height="11.887"/>
<text transform="matrix(1 0 0 1 524.499 480.7383)" fill="#FFFFFF" font-family="'Swiss721BT-Light'" font-size="10">EXIT</text>
<g>
	<g>
		<line fill="none" stroke="#000000" stroke-miterlimit="10" x1="480.302" y1="542.334" x2="512.185" y2="542.334"/>
		<g>
			<path d="M505.772,547.365c-0.165,0-0.326-0.082-0.422-0.231c-0.148-0.232-0.08-0.542,0.152-0.69l6.453-4.109l-6.453-4.109
				c-0.232-0.148-0.301-0.458-0.152-0.69s0.459-0.3,0.689-0.153l7.115,4.531c0.145,0.092,0.231,0.251,0.231,0.422
				s-0.087,0.33-0.231,0.422l-7.115,4.531C505.958,547.34,505.864,547.365,505.772,547.365
				C505.607,547.365,505.864,547.365,505.772,547.365z"/>
		</g>
	</g>
</g>
<g>
	<g>
		<line fill="none" stroke="#000000" stroke-miterlimit="10" x1="437.508" y1="566.42" x2="437.508" y2="590.86"/>
		<g>
			<path d="M432.477,584.448c0-0.165,0.082-0.327,0.231-0.423c0.232-0.148,0.542-0.079,0.69,0.154l4.109,6.452l4.109-6.452
				c0.148-0.233,0.458-0.303,0.69-0.154s0.3,0.46,0.153,0.691l-4.531,7.114c-0.092,0.144-0.251,0.231-0.422,0.231
				s-0.33-0.088-0.422-0.231l-4.531-7.114C432.502,584.633,432.477,584.54,432.477,584.448
				C432.477,584.283,432.477,584.54,432.477,584.448z"/>
		</g>
	</g>
</g>
<rect x="417.007" y="591.949" fill="#FFFFFF" stroke="#000000" stroke-miterlimit="10" width="41.833" height="25.416"/>
<rect x="419.34" y="599.715" fill="none" width="37.167" height="11.887"/>
<text transform="matrix(1 0 0 1 430.0176 606.9043)" font-family="'Swiss721BT-Light'" font-size="10">Yes</text>
<rect x="514.099" y="529.164" fill="#FFFFFF" stroke="#000000" stroke-miterlimit="10" width="41.833" height="25.416"/>
<rect x="516.432" y="536.93" fill="none" width="37.167" height="11.887"/>
<text transform="matrix(1 0 0 1 528.7041 544.1191)" font-family="'Swiss721BT-Light'" font-size="10">No</text>
<g>
	<g>
		<line fill="none" stroke="#000000" stroke-miterlimit="10" x1="534.304" y1="554.699" x2="534.304" y2="589.071"/>
		<g>
			<path d="M529.272,582.659c0-0.165,0.082-0.327,0.231-0.423c0.232-0.148,0.542-0.079,0.69,0.154l4.109,6.452l4.109-6.452
				c0.148-0.233,0.458-0.303,0.69-0.154s0.3,0.46,0.153,0.691l-4.531,7.114c-0.092,0.144-0.251,0.231-0.422,0.231
				s-0.33-0.088-0.422-0.231l-4.531-7.114C529.298,582.844,529.272,582.751,529.272,582.659
				C529.272,582.494,529.272,582.751,529.272,582.659z"/>
		</g>
	</g>
</g>
<rect x="513.387" y="591.221" fill="#414042" stroke="#000000" stroke-miterlimit="10" width="41.833" height="25.416"/>
<rect x="515.72" y="598.986" fill="none" width="37.167" height="11.887"/>
<text transform="matrix(1 0 0 1 524.499 606.1758)" fill="#FFFFFF" font-family="'Swiss721BT-Light'" font-size="10">EXIT</text>
<g>
	<g>
		<polyline fill="none" stroke="#000000" stroke-miterlimit="10" points="225.023,352.617 151.469,352.617 151.469,400.62 		"/>
		<g>
			<path d="M146.438,394.208c0-0.165,0.082-0.327,0.231-0.423c0.232-0.148,0.542-0.079,0.69,0.154l4.109,6.452l4.109-6.452
				c0.148-0.233,0.458-0.303,0.69-0.154s0.3,0.46,0.153,0.691l-4.531,7.114c-0.092,0.144-0.251,0.231-0.422,0.231
				s-0.33-0.088-0.422-0.231l-4.531-7.114C146.463,394.393,146.438,394.3,146.438,394.208
				C146.438,394.043,146.438,394.3,146.438,394.208z"/>
		</g>
	</g>
</g>
<rect x="13.522" y="13.034" fill="#FFFFFF" stroke="#000000" stroke-miterlimit="10" width="275.178" height="50.833"/>
<rect x="116.898" y="27.693" fill="none" width="69.142" height="23.516"/>
<text transform="matrix(1 0 0 1 118.9087 34.8828)"><tspan x="0" y="0" font-family="'Swiss721BT-Light'" font-size="10">How do I make </tspan><tspan x="0.993" y="12" font-family="'Swiss721BT-Light'" font-size="10">{drink name}?</tspan></text>
<g>
	<g>
		<polyline fill="none" stroke="#000000" stroke-miterlimit="10" points="150.043,63.756 150.043,226.646 245.524,226.646 
			245.524,263.165 		"/>
		<g>
			<path d="M240.493,256.753c0-0.165,0.082-0.327,0.231-0.423c0.232-0.148,0.542-0.079,0.69,0.154l4.109,6.452l4.109-6.452
				c0.148-0.233,0.458-0.303,0.69-0.154s0.3,0.46,0.153,0.691l-4.531,7.114c-0.092,0.144-0.251,0.231-0.422,0.231
				s-0.33-0.088-0.422-0.231l-4.531-7.114C240.519,256.938,240.493,256.845,240.493,256.753
				C240.493,256.588,240.493,256.845,240.493,256.753z"/>
		</g>
	</g>
</g>
<g>
	<g>
		<polyline fill="none" stroke="#000000" stroke-miterlimit="10" points="396.803,541.006 390.225,541.006 390.225,417.484 
			384.897,417.484 		"/>
		<g>
			<polygon points="388.21,413.395 388.893,414.127 385.28,417.483 388.893,420.841 388.21,421.573 383.812,417.483 			"/>
		</g>
	</g>
</g>
</svg>
