<?xml version="1.0" encoding="utf-8"?>
<!-- Generator: Adobe Illustrator 15.0.0, SVG Export Plug-In  -->
<!DOCTYPE svg PUBLIC "-//W3C//DTD SVG 1.1//EN" "http://www.w3.org/Graphics/SVG/1.1/DTD/svg11.dtd" [
	<!ENTITY ns_flows "http://ns.adobe.com/Flows/1.0/">
]>
<svg version="1.1"
	 xmlns="http://www.w3.org/2000/svg" xmlns:xlink="http://www.w3.org/1999/xlink" xmlns:a="http://ns.adobe.com/AdobeSVGViewerExtensions/3.0/"
	 x="0px" y="0px" width="694px" height="250px" viewBox="0.646 0.645 694 250"
	 overflow="visible" enable-background="new 0.646 0.645 694 250" xml:space="preserve">
<defs>
</defs>
<polygon fill="#FFFFFF" points="439.772,44.769 448.287,28.973 446.37,27.938 437.295,44.769 "/>
<polygon fill="#FFFFFF" points="270.385,44.77 272.337,0.95 265.461,0.645 263.497,44.769 "/>
<path fill="#FFFFFF" d="M26.416,150.601v-14.233c0,0,19.704,0,19.703,0l13.887-10.03c-10.604-14.679-31.095-17.98-45.774-7.379
	c-14.675,10.604-17.978,31.095-7.376,45.771l19.561-14.129"/>
<path fill="#FFFFFF" d="M200.895,81.006V44.769c0,0,39.34,0,39.34,0c-2.151-15.854-15.719-28.103-32.172-28.158
	c-17.994-0.061-32.633,14.479-32.693,32.47C175.317,64.691,186.25,77.771,200.895,81.006z"/>
<path fill="#FFFFFF" d="M557.772,78.923c-3.881,1.641-8.148,2.549-12.626,2.549c-17.912,0-32.434-14.521-32.434-32.433
	s14.522-32.433,32.434-32.433c16.464,0,30.065,12.269,32.157,28.162v0.001h-39.906v0.003c0,13.229,7.673,25.279,20.252,34.331"/>
<path fill="#FFFFFF" d="M578.933,89.882c6.792,24.593,20.312,41.355,35.882,41.355c15.565,0,29.084-16.759,35.876-41.347
	l0.002,0.003c24.691-8.506,41.541-25.522,41.541-45.123v-0.003H537.397v0.003c0,19.6,16.843,36.614,41.536,45.122"/>
<polyline fill="#FFFFFF" points="406.947,122.186 484.365,44.769 329.531,44.769 406.945,122.184 "/>
<path opacity="0.4" fill="#6CC06C" d="M694.446,55.307c0,0-148.941,0-148.941-0.001c5.852,13.529,19.996,24.764,38.595,31.171
	l-0.002-0.011c6.791,24.592,20.312,41.356,35.882,41.356c15.568,0,29.085-16.762,35.876-41.348v0.003
	c18.521-6.379,32.626-17.546,38.521-30.999"/>
<path opacity="0.2" fill="#6CC06C" d="M560.356,75.048c-3.881,1.641-8.147,2.549-12.626,2.549
	c-17.913,0-32.434-14.521-32.434-32.434c0-17.912,14.521-32.433,32.434-32.433c16.464,0,30.064,12.268,32.156,28.164h-39.905v0.002
	c0,13.227,7.671,25.275,20.249,34.328"/>
<ellipse opacity="0.2" fill="#676767" cx="407.468" cy="245.021" rx="63.959" ry="5.624"/>
<polyline fill="#FFFFFF" points="410.84,118.293 410.838,227.174 458.559,243.811 355.335,243.811 403.074,227.166 403.074,118.312 
	"/>
<ellipse opacity="0.2" fill="#676767" cx="244.445" cy="245.021" rx="56.453" ry="5.624"/>
<path fill="#FFFFFF" d="M200.895,136.368v85.122c0,10.931,9.209,22.24,16.374,22.24h54.386c7.165,0,16.374-11.31,16.374-22.24
	v-85.122V44.769h-87.134V136.368z"/>
<path opacity="0.2" fill="#FBB03C" d="M242.818,40.895h-39.34v36.236c-14.645-3.235-25.578-16.316-25.526-31.925
	c0.06-17.991,14.699-32.53,32.693-32.47C227.099,12.792,240.667,25.04,242.818,40.895z"/>
<path fill="none" stroke="#676767" stroke-width="1.2903" stroke-linecap="round" stroke-linejoin="round" stroke-miterlimit="10" d="
	M240.235,44.769c-2.151-15.854-15.719-28.103-32.172-28.158c-17.994-0.061-32.633,14.479-32.693,32.47
	c-0.052,15.61,10.881,28.69,25.526,31.924"/>
<path opacity="0.4" fill="#C1282D" d="M206.061,69.068h87.135v117.241v31.44c0,10.932-9.212,22.242-16.374,22.242h-27.193h-27.194
	c-7.162,0-16.374-11.311-16.374-22.242v-31.44V69.068z"/>
<path fill="none" stroke="#676767" stroke-width="1.2903" stroke-linecap="round" stroke-linejoin="round" stroke-miterlimit="10" d="
	M277.968,123.005l-16.881,36.861c-1.734,3.788-6.212,5.45-10,3.718l-39.856-18.253c-3.789-1.737-5.453-6.212-3.719-10l17.941-39.171
	"/>
<path fill="none" stroke="#676767" stroke-width="1.2903" stroke-linecap="round" stroke-linejoin="round" stroke-miterlimit="10" d="
	M282.612,67.748l3.35,50.102c0.16,2.399-1.656,4.476-4.056,4.635l-50.1,3.349c-2.402,0.162-4.478-1.653-4.638-4.055l-3.351-50.099
	c-0.159-2.401,1.656-4.478,4.058-4.64l50.099-3.346C280.375,63.531,282.45,65.345,282.612,67.748z"/>
<path fill="none" stroke="#676767" stroke-width="1.2903" stroke-linecap="round" stroke-linejoin="round" stroke-miterlimit="10" d="
	M267.155,146.618l16.916,39.131c0.954,2.207-0.064,4.771-2.272,5.724l-46.09,19.925c-2.208,0.957-4.771-0.059-5.728-2.268
	l-19.926-46.089c-0.954-2.21,0.062-4.774,2.272-5.729l12.893-5.574"/>
<line fill="none" stroke="#676767" stroke-width="1.2903" stroke-linecap="round" stroke-linejoin="round" stroke-miterlimit="10" x1="231.054" y1="76.031" x2="274.793" y2="73.107"/>
<path fill="none" stroke="#676767" stroke-width="2.5806" stroke-linecap="round" stroke-linejoin="round" stroke-miterlimit="10" d="
	M200.895,136.368v85.122c0,10.931,9.209,22.24,16.374,22.24h54.386c7.165,0,16.374-11.31,16.374-22.24v-85.122V44.769h-87.134
	V136.368z"/>
<polyline fill="none" stroke="#676767" stroke-width="1.2903" stroke-linecap="round" stroke-linejoin="round" stroke-miterlimit="10" points="
	263.505,199.38 261.747,238.906 254.871,238.598 256.482,202.417 "/>
<polyline fill="none" stroke="#676767" stroke-width="1.2903" stroke-linecap="round" stroke-linejoin="round" stroke-miterlimit="10" points="
	262.609,64.719 265.461,0.645 272.337,0.95 269.518,64.257 "/>
<polyline fill="none" stroke="#676767" stroke-width="2.5806" stroke-linecap="round" stroke-linejoin="round" stroke-miterlimit="10" points="
	406.947,122.186 484.365,44.769 329.531,44.769 406.945,122.184 "/>
<polyline fill="none" stroke="#676767" stroke-width="2.5806" stroke-linecap="round" stroke-linejoin="round" stroke-miterlimit="10" points="
	410.84,118.293 410.838,227.174 458.559,243.811 355.335,243.811 403.074,227.166 403.074,118.312 "/>
<polyline opacity="0.4" fill="#399AD5" points="413.402,122.184 349.946,58.727 476.865,58.724 413.404,122.186 "/>
<circle fill="none" stroke="#676767" stroke-width="1.2903" stroke-linecap="round" stroke-linejoin="round" stroke-miterlimit="10" cx="424.649" cy="70.524" r="10.749"/>
<path fill="none" stroke="#676767" stroke-width="1.2903" stroke-linecap="round" stroke-linejoin="round" stroke-miterlimit="10" d="
	M432.481,72.536c0.673-2.644-0.008-5.563-2.054-7.656c-2.124-2.175-5.176-2.896-7.916-2.147"/>
<polyline fill="none" stroke="#676767" stroke-width="1.2903" stroke-linecap="round" stroke-linejoin="round" stroke-miterlimit="10" points="
	428.766,60.588 446.37,27.938 448.287,28.973 430.687,61.624 "/>
<polyline fill="none" stroke="#676767" stroke-width="1.2903" stroke-linecap="round" stroke-linejoin="round" stroke-miterlimit="10" points="
	420.531,80.456 402.928,113.111 401.01,112.073 418.613,79.42 "/>
<circle fill="none" stroke="#676767" stroke-width="1.2903" stroke-linecap="round" stroke-linejoin="round" stroke-miterlimit="10" cx="424.649" cy="70.524" r="10.749"/>
<path fill="none" stroke="#676767" stroke-width="1.2903" stroke-linecap="round" stroke-linejoin="round" stroke-miterlimit="10" d="
	M432.481,72.536c0.673-2.644-0.008-5.563-2.054-7.656c-2.124-2.175-5.176-2.896-7.916-2.147"/>
<polyline fill="none" stroke="#676767" stroke-width="1.2903" stroke-linecap="round" stroke-linejoin="round" stroke-miterlimit="10" points="
	420.531,80.456 402.928,113.111 401.01,112.073 418.613,79.42 "/>
<ellipse opacity="0.2" fill="#676767" cx="615.335" cy="245.021" rx="63.959" ry="5.624"/>
<path fill="#FFFFFF" d="M618.707,130.876c0,28.653,0,96.299,0,96.298l47.72,16.637H563.203l47.737-16.646v-96.287"/>
<path fill="none" stroke="#676767" stroke-width="2.5806" stroke-linecap="round" stroke-linejoin="round" stroke-miterlimit="10" d="
	M618.707,130.876c0,28.653,0,96.299,0,96.298l47.72,16.637H563.203l47.737-16.646v-96.287"/>
<ellipse opacity="0.2" fill="#676767" cx="83.548" cy="245.021" rx="70.034" ry="5.624"/>
<path fill="#FFFFFF" d="M47.889,243.73c-9.396,0-21.473-11.31-21.473-22.24v-85.122h114.262v85.122
	c0,10.931-12.078,22.24-21.472,22.24H47.889z"/>
<path opacity="0.4" fill="#FBB03C" d="M31.251,186.309v31.44c0,10.932,12.078,22.242,21.471,22.242h35.661h35.661
	c9.392,0,21.471-11.311,21.471-22.242v-31.44H31.251z"/>
<path fill="none" stroke="#676767" stroke-width="1.2903" stroke-linecap="round" stroke-linejoin="round" stroke-miterlimit="10" d="
	M73.031,220.347l-36.861-16.88c-3.788-1.735-5.451-6.213-3.716-10.001l18.253-39.855c1.736-3.789,6.212-5.452,9.999-3.719
	l39.857,18.256c1.556,0.711,2.752,1.886,3.504,3.285"/>
<path fill="none" stroke="#676767" stroke-width="1.2903" stroke-linecap="round" stroke-linejoin="round" stroke-miterlimit="10" d="
	M128.29,228.867l-50.101,3.349c-2.4,0.159-4.476-1.657-4.636-4.057l-3.349-50.099c-0.162-2.402,1.653-4.479,4.055-4.639
	l50.101-3.352c2.4-0.157,4.478,1.658,4.638,4.061l3.349,50.098C132.506,226.628,130.691,228.704,128.29,228.867z"/>
<path opacity="0.2" fill="#FAED24" d="M63.152,120.2c-10.602-14.676-31.095-17.979-45.772-7.373
	c-14.677,10.6-17.98,31.093-7.378,45.768L63.152,120.2z"/>
<path fill="none" stroke="#676767" stroke-width="1.2903" stroke-linecap="round" stroke-linejoin="round" stroke-miterlimit="10" d="
	M46.119,136.368l13.887-10.03c-10.604-14.679-31.095-17.98-45.774-7.379c-14.675,10.604-17.978,31.095-7.376,45.771l19.561-14.129"
	/>
<line fill="none" stroke="#676767" stroke-width="1.2903" stroke-linecap="round" stroke-linejoin="round" stroke-miterlimit="10" x1="120.007" y1="177.309" x2="122.931" y2="221.047"/>
<path fill="none" stroke="#676767" stroke-width="2.5806" stroke-linecap="round" stroke-linejoin="round" stroke-miterlimit="10" d="
	M47.889,243.73c-9.396,0-21.473-11.31-21.473-22.24v-85.122h114.262v85.122c0,10.931-12.078,22.24-21.472,22.24H47.889z"/>
<path fill="none" stroke="#676767" stroke-width="2.5806" stroke-linecap="round" stroke-linejoin="round" stroke-miterlimit="10" d="
	M578.933,89.882c6.792,24.593,20.312,41.355,35.882,41.355c15.565,0,29.084-16.759,35.876-41.347l0.002,0.003
	c24.691-8.506,41.541-25.522,41.541-45.123v-0.003H537.397v0.003c0,19.6,16.843,36.614,41.536,45.122"/>
<path fill="none" stroke="#676767" stroke-width="1.2903" stroke-miterlimit="10" d="M557.772,78.923
	c-3.881,1.641-8.148,2.549-12.626,2.549c-17.912,0-32.434-14.521-32.434-32.433s14.522-32.433,32.434-32.433
	c16.464,0,30.065,12.269,32.157,28.162"/>
</svg>
