<?xml version="1.0" encoding="utf-8"?>
<!-- Generator: Adobe Illustrator 15.0.0, SVG Export Plug-In  -->
<!DOCTYPE svg PUBLIC "-//W3C//DTD SVG 1.1//EN" "http://www.w3.org/Graphics/SVG/1.1/DTD/svg11.dtd" [
	<!ENTITY ns_flows "http://ns.adobe.com/Flows/1.0/">
]>
<svg version="1.1"
	 xmlns="http://www.w3.org/2000/svg" xmlns:xlink="http://www.w3.org/1999/xlink" xmlns:a="http://ns.adobe.com/AdobeSVGViewerExtensions/3.0/"
	 x="0px" y="0px" width="1000px" height="560px" viewBox="-2.45 -1 1000 560"
	 overflow="visible" enable-background="new -2.45 -1 1000 560" xml:space="preserve">
<defs>
</defs>
<g>
	<g>
		<line fill="none" stroke="#BE1E2D" stroke-width="5" stroke-miterlimit="10" x1="395.05" y1="201.5" x2="427.109" y2="201.5"/>
		<g>
			<polygon fill="#BE1E2D" points="423.462,213.895 445.05,201.432 423.462,188.966 			"/>
		</g>
	</g>
</g>
<rect x="294.46" y="151.5" fill="#FFFFFF" stroke="#000000" stroke-width="3" stroke-miterlimit="10" width="150" height="300"/>
<rect x="95.05" y="1.5" fill="#FFFFFF" stroke="#000000" stroke-width="3" stroke-miterlimit="10" width="150" height="250"/>
<rect x="795.05" y="1.5" fill="#FFFFFF" stroke="#000000" stroke-width="3" stroke-miterlimit="10" width="150" height="250"/>
<rect x="495.05" y="351.5" fill="#FFFFFF" stroke="#000000" stroke-width="3" stroke-miterlimit="10" width="150" height="100"/>
<rect x="645.05" y="251.525" fill="#FFFFFF" stroke="#000000" stroke-width="3" stroke-miterlimit="10" width="150" height="100"/>
<rect x="95.177" y="6.5" fill="none" width="149.746" height="17.877"/>
<text transform="matrix(1 0 0 1 125.3291 16.5659)" font-family="'Helvetica-Bold'" font-size="14">DRINK NAME</text>
<rect x="295.177" y="156.5" fill="none" width="149.746" height="17.877"/>
<text transform="matrix(1 0 0 1 309.7705 166.5659)" font-family="'Helvetica-Bold'" font-size="14">INGREDIENT LIST</text>
<rect x="495.177" y="356.5" fill="none" width="149.746" height="29.879"/>
<text transform="matrix(1 0 0 1 543.2188 366.5659)"><tspan x="0" y="0" font-family="'Helvetica-Bold'" font-size="14">LIST OF </tspan><tspan x="-22.559" y="16.8" font-family="'Helvetica-Bold'" font-size="14">DRINK NAMES</tspan></text>
<rect x="645.177" y="256.5" fill="none" width="149.746" height="29.879"/>
<text transform="matrix(1 0 0 1 674.9424 266.5659)"><tspan x="0" y="0" font-family="'Helvetica-Bold'" font-size="14">NEW LIST OF </tspan><tspan x="-4.282" y="16.8" font-family="'Helvetica-Bold'" font-size="14">DRINK NAMES</tspan></text>
<rect x="795.177" y="6.5" fill="none" width="149.746" height="29.879"/>
<text transform="matrix(1 0 0 1 843.9873 16.5659)" font-family="'Helvetica-Bold'" font-size="14">RECIPE</text>
<rect x="5.05" y="175" fill="none" width="69.058" height="21.38"/>
<text transform="matrix(1 0 0 1 5.0498 182.1904)"><tspan x="0" y="0" font-family="'Swiss721BT-Light'" font-size="10">Get Ingredients </tspan><tspan x="0" y="12" font-family="'Swiss721BT-Light'" font-size="10">+ Recipe</tspan></text>
<rect x="0.05" y="385.833" fill="none" width="88.725" height="10.045"/>
<text transform="matrix(1 0 0 1 0.0498 393.0229)" font-family="'Swiss721BT-Light'" font-size="10">Get Possible Drinks</text>
<rect x="0.05" y="274.833" fill="none" width="124.725" height="21.547"/>
<text transform="matrix(1 0 0 1 0.0498 282.0225)"><tspan x="0" y="0" font-family="'Swiss721BT-Light'" font-size="10">Get Possible Drinks with  </tspan><tspan x="0" y="12" font-family="'Swiss721BT-Light'" font-size="10">Addition of&lt;2 Ingredients</tspan></text>
<g>
	<g>
		<line fill="none" stroke="#BE1E2D" stroke-width="5" stroke-miterlimit="10" x1="245.05" y1="201.5" x2="277.109" y2="201.5"/>
		<g>
			<polygon fill="#BE1E2D" points="273.462,213.895 295.05,201.432 273.462,188.966 			"/>
		</g>
	</g>
</g>
<g>
	<g>
		<line fill="none" stroke="#BE1E2D" stroke-width="5" stroke-miterlimit="10" x1="945.05" y1="201.5" x2="993.8" y2="201.5"/>
		<g>
			<rect x="992.55" y="193.375" fill="#BE1E2D" width="2.5" height="16.25"/>
		</g>
	</g>
</g>
<g>
	<g>
		<line fill="none" stroke="#BE1E2D" stroke-width="5" stroke-miterlimit="10" x1="5.108" y1="201.5" x2="77.109" y2="201.5"/>
		<g>
			<g>
				<circle fill="#FFFFFF" cx="5.374" cy="201.5" r="4.7"/>
				<path fill="#BE1E2D" d="M5.374,206.825c2.937,0,5.325-2.389,5.325-5.325s-2.389-5.325-5.325-5.325
					c-2.936,0-5.324,2.389-5.324,5.325S2.438,206.825,5.374,206.825C8.311,206.825,2.438,206.825,5.374,206.825z M5.374,197.425
					c2.248,0,4.075,1.828,4.075,4.075s-1.827,4.075-4.075,4.075c-2.247,0-4.074-1.828-4.074-4.075S3.127,197.425,5.374,197.425
					C7.622,197.425,3.127,197.425,5.374,197.425z"/>
			</g>
		</g>
		<g>
			<polygon fill="#BE1E2D" points="73.462,213.895 95.05,201.432 73.462,188.966 			"/>
		</g>
	</g>
</g>
<g>
	<g>
		<line fill="none" stroke="#00A651" stroke-width="5" stroke-miterlimit="10" x1="5.108" y1="401.5" x2="277.109" y2="401.5"/>
		<g>
			<g>
				<circle fill="#FFFFFF" cx="5.374" cy="401.5" r="4.7"/>
				<path fill="#00A651" d="M5.374,406.825c2.937,0,5.325-2.389,5.325-5.325s-2.389-5.325-5.325-5.325
					c-2.936,0-5.324,2.389-5.324,5.325S2.438,406.825,5.374,406.825C8.311,406.825,2.438,406.825,5.374,406.825z M5.374,397.425
					c2.248,0,4.075,1.828,4.075,4.075s-1.827,4.075-4.075,4.075c-2.247,0-4.074-1.828-4.074-4.075S3.127,397.425,5.374,397.425
					C7.622,397.425,3.127,397.425,5.374,397.425z"/>
			</g>
		</g>
		<g>
			<polygon fill="#00A651" points="273.462,413.895 295.05,401.432 273.462,388.966 			"/>
		</g>
	</g>
</g>
<g>
	<g>
		<line fill="none" stroke="#00A651" stroke-width="5" stroke-miterlimit="10" x1="445.05" y1="401.5" x2="477.109" y2="401.5"/>
		<g>
			<polygon fill="#00A651" points="473.462,413.895 495.05,401.432 473.462,388.966 			"/>
		</g>
	</g>
</g>
<g>
	<g>
		<line fill="none" stroke="#00A651" stroke-width="5" stroke-miterlimit="10" x1="245.05" y1="126.5" x2="777.109" y2="126.5"/>
		<g>
			<polygon fill="#00A651" points="773.462,138.895 795.05,126.432 773.462,113.966 			"/>
		</g>
	</g>
</g>
<g>
	<g>
		<line fill="none" stroke="#00AEEF" stroke-width="5" stroke-miterlimit="10" x1="5.108" y1="301.5" x2="277.109" y2="301.5"/>
		<g>
			<g>
				<circle fill="#FFFFFF" cx="5.374" cy="301.5" r="4.7"/>
				<path fill="#00AEEF" d="M5.374,306.825c2.937,0,5.325-2.389,5.325-5.325s-2.389-5.325-5.325-5.325
					c-2.936,0-5.324,2.389-5.324,5.325S2.438,306.825,5.374,306.825C8.311,306.825,2.438,306.825,5.374,306.825z M5.374,297.425
					c2.248,0,4.075,1.828,4.075,4.075s-1.827,4.075-4.075,4.075c-2.247,0-4.074-1.828-4.074-4.075S3.127,297.425,5.374,297.425
					C7.622,297.425,3.127,297.425,5.374,297.425z"/>
			</g>
		</g>
		<g>
			<polygon fill="#00AEEF" points="273.462,313.895 295.05,301.432 273.462,288.966 			"/>
		</g>
	</g>
</g>
<g>
	<g>
		<line fill="none" stroke="#00AEEF" stroke-width="5" stroke-miterlimit="10" x1="445.05" y1="301.5" x2="627.109" y2="301.5"/>
		<g>
			<polygon fill="#00AEEF" points="623.462,313.895 645.05,301.432 623.462,288.966 			"/>
		</g>
	</g>
</g>
<line opacity="0.5" fill="none" stroke="#00AEEF" stroke-width="5" stroke-miterlimit="10" stroke-dasharray="8,4" x1="295.05" y1="301.5" x2="445.05" y2="301.5"/>
<line opacity="0.5" fill="none" stroke="#00AEEF" stroke-width="5" stroke-miterlimit="10" stroke-dasharray="8,4" x1="645.05" y1="301.5" x2="795.05" y2="301.5"/>
<g>
	<g>
		<line fill="none" stroke="#00AEEF" stroke-width="5" stroke-miterlimit="10" x1="245.05" y1="51.5" x2="777.109" y2="51.5"/>
		<g>
			<polygon fill="#00AEEF" points="773.462,63.895 795.05,51.432 773.462,38.966 			"/>
		</g>
	</g>
</g>
<g>
	<g>
		<line fill="none" stroke="#00A651" stroke-width="5" stroke-miterlimit="10" x1="945.05" y1="126.5" x2="993.8" y2="126.5"/>
		<g>
			<rect x="992.55" y="118.375" fill="#00A651" width="2.5" height="16.25"/>
		</g>
	</g>
</g>
<g>
	<g>
		<line fill="none" stroke="#00AEEF" stroke-width="5" stroke-miterlimit="10" x1="945.05" y1="51.5" x2="993.8" y2="51.5"/>
		<g>
			<rect x="992.55" y="43.375" fill="#00AEEF" width="2.5" height="16.25"/>
		</g>
	</g>
</g>
<g>
	<g>
		<line fill="none" stroke="#BE1E2D" stroke-width="5" stroke-miterlimit="10" x1="445.05" y1="201.5" x2="777.109" y2="201.5"/>
		<g>
			<polygon fill="#BE1E2D" points="773.462,213.895 795.05,201.432 773.462,188.966 			"/>
		</g>
	</g>
</g>
<g>
	<g>
		<polyline fill="none" stroke="#00AEEF" stroke-width="5" stroke-linejoin="round" points="795.05,301.5 845.05,301.5 
			845.05,551.501 145.05,551.5 145.05,269.44 		"/>
		<g>
			<polygon fill="#00AEEF" points="157.444,273.088 144.981,251.5 132.516,273.088 			"/>
		</g>
	</g>
</g>
<line opacity="0.5" fill="none" stroke="#BE1E2D" stroke-width="5" stroke-miterlimit="10" stroke-dasharray="8,4" x1="95.05" y1="201.5" x2="245.05" y2="201.5"/>
<line opacity="0.5" fill="none" stroke="#BE1E2D" stroke-width="5" stroke-miterlimit="10" stroke-dasharray="8,4" x1="294.46" y1="201.5" x2="444.46" y2="201.5"/>
<line opacity="0.5" fill="none" stroke="#BE1E2D" stroke-width="5" stroke-miterlimit="10" stroke-dasharray="8,4" x1="795.05" y1="201.5" x2="945.05" y2="201.5"/>
<line opacity="0.5" fill="none" stroke="#00A651" stroke-width="5" stroke-miterlimit="10" stroke-dasharray="8,4" x1="295.05" y1="401.5" x2="445.05" y2="401.5"/>
<g>
	<g>
		<polyline fill="none" stroke="#00A651" stroke-width="5" stroke-linejoin="round" points="645.05,401.5 695.05,401.5 
			695.05,501.5 195.05,501.5 195.05,269.44 		"/>
		<g>
			<polygon fill="#00A651" points="207.444,273.088 194.981,251.5 182.516,273.088 			"/>
		</g>
	</g>
</g>
<line opacity="0.5" fill="none" stroke="#00A651" stroke-width="5" stroke-miterlimit="10" stroke-dasharray="8,4" x1="495.05" y1="401.5" x2="645.05" y2="401.5"/>
<polyline opacity="0.5" fill="none" stroke="#00A651" stroke-width="5" stroke-linejoin="round" stroke-miterlimit="10" stroke-dasharray="8,4" points="
	245.05,126.5 195.05,126.5 195.05,251.525 "/>
<line opacity="0.5" fill="none" stroke="#00A651" stroke-width="5" stroke-miterlimit="10" stroke-dasharray="8,4" x1="795.05" y1="126.5" x2="945.05" y2="126.5"/>
<line opacity="0.5" fill="none" stroke="#00AEEF" stroke-width="5" stroke-miterlimit="10" stroke-dasharray="8,4" x1="795.05" y1="51.5" x2="945.05" y2="51.5"/>
<polyline opacity="0.5" fill="none" stroke="#00AEEF" stroke-width="5" stroke-linejoin="round" stroke-miterlimit="10" stroke-dasharray="8,4" points="
	145.05,251.5 145.05,51.5 245.05,51.5 "/>
</svg>
