<?xml version="1.0" encoding="utf-8"?>
<!-- Generator: Adobe Illustrator 15.0.0, SVG Export Plug-In  -->
<!DOCTYPE svg PUBLIC "-//W3C//DTD SVG 1.1//EN" "http://www.w3.org/Graphics/SVG/1.1/DTD/svg11.dtd" [
	<!ENTITY ns_flows "http://ns.adobe.com/Flows/1.0/">
]>
<svg version="1.1"
	 xmlns="http://www.w3.org/2000/svg" xmlns:xlink="http://www.w3.org/1999/xlink" xmlns:a="http://ns.adobe.com/AdobeSVGViewerExtensions/3.0/"
	 x="0px" y="0px" width="1200px" height="400px" viewBox="0 0 1200 400" overflow="visible" enable-background="new 0 0 1200 400"
	 xml:space="preserve">
<defs>
</defs>
<line fill="none" stroke="#CDCCCC" stroke-width="1.1464" stroke-miterlimit="10" x1="273.124" y1="0" x2="273.124" y2="400"/>
<line fill="none" stroke="#CDCCCC" stroke-width="1.1464" stroke-miterlimit="10" x1="295.465" y1="0" x2="295.465" y2="400"/>
<line fill="none" stroke="#CDCCCC" stroke-width="1.1464" stroke-miterlimit="10" x1="75.287" y1="0" x2="75.287" y2="400"/>
<line fill="none" stroke="#CDCCCC" stroke-width="1.1464" stroke-miterlimit="10" x1="30.668" y1="0" x2="30.668" y2="400"/>
<line fill="none" stroke="#CDCCCC" stroke-width="1.1464" stroke-miterlimit="10" x1="53.009" y1="0" x2="53.009" y2="400"/>
<line fill="none" stroke="#CDCCCC" stroke-width="1.1464" stroke-miterlimit="10" x1="364.867" y1="0" x2="364.867" y2="400"/>
<line fill="none" stroke="#CDCCCC" stroke-width="1.1464" stroke-miterlimit="10" x1="474.635" y1="0" x2="474.635" y2="400"/>
<line fill="none" stroke="#CDCCCC" stroke-width="1.1464" stroke-miterlimit="10" x1="485.805" y1="0" x2="485.805" y2="400"/>
<line fill="none" stroke="#CDCCCC" stroke-width="1.1464" stroke-miterlimit="10" x1="604.312" y1="0" x2="604.312" y2="400"/>
<line fill="none" stroke="#CDCCCC" stroke-width="1.1464" stroke-miterlimit="10" x1="615.481" y1="0" x2="615.481" y2="400"/>
<line fill="none" stroke="#CDCCCC" stroke-width="1.1464" stroke-miterlimit="10" x1="691.73" y1="0" x2="691.73" y2="400"/>
<line fill="none" stroke="#CDCCCC" stroke-width="1.1464" stroke-miterlimit="10" x1="702.901" y1="0" x2="702.901" y2="400"/>
<line fill="none" stroke="#CDCCCC" stroke-width="1.1464" stroke-miterlimit="10" x1="915.044" y1="0" x2="915.044" y2="400"/>
<line fill="none" stroke="#CDCCCC" stroke-width="1.1464" stroke-miterlimit="10" x1="926.214" y1="0" x2="926.214" y2="400"/>
<line fill="none" stroke="#CDCCCC" stroke-width="1.1464" stroke-miterlimit="10" x1="1037.935" y1="0" x2="1037.935" y2="400"/>
<line fill="none" stroke="#CDCCCC" stroke-width="1.1464" stroke-miterlimit="10" x1="1049.105" y1="0" x2="1049.105" y2="400"/>
<line fill="none" stroke="#CDCCCC" stroke-width="1.1464" stroke-miterlimit="10" x1="803.643" y1="0" x2="803.643" y2="400"/>
<line fill="none" stroke="#CDCCCC" stroke-width="1.1464" stroke-miterlimit="10" x1="1167.614" y1="0" x2="1167.614" y2="400"/>
<line fill="none" stroke="#CDCCCC" stroke-width="1.1464" stroke-miterlimit="10" x1="225.021" y1="0" x2="225.021" y2="400"/>
<line fill="none" stroke="#CDCCCC" stroke-width="1.1464" stroke-miterlimit="10" x1="133.426" y1="0" x2="133.426" y2="400"/>
<line fill="none" stroke="#CDCCCC" stroke-width="1.1464" stroke-miterlimit="10" x1="364.867" y1="0" x2="364.867" y2="400"/>
<line fill="none" stroke="#CDCCCC" stroke-width="1.117" stroke-miterlimit="10" x1="0.859" y1="84.506" x2="1197.255" y2="84.506"/>
<line fill="none" stroke="#CDCCCC" stroke-width="1.117" stroke-miterlimit="10" x1="3.603" y1="176.913" x2="1200" y2="176.913"/>
<line fill="none" stroke="#CDCCCC" stroke-width="1.117" stroke-miterlimit="10" x1="0.859" y1="269.323" x2="1197.255" y2="269.323"/>
<line fill="none" stroke="#CDCCCC" stroke-width="1.117" stroke-miterlimit="10" x1="0" y1="330.584" x2="1196.395" y2="330.584"/>
<line fill="none" stroke="#CDCCCC" stroke-width="1.117" stroke-miterlimit="10" x1="0" y1="342.7" x2="1196.395" y2="342.7"/>
<line fill="none" stroke="#CDCCCC" stroke-width="1.117" stroke-miterlimit="10" x1="0" y1="362.239" x2="1196.395" y2="362.239"/>
<path fill="#FFFFFF" d="M273.124,84.499v147.386c0,18.924-20.911,38.505-37.178,38.505h-10.619l-92.615,60.195V270.39h-20.248
	c-16.266,0-37.177-19.581-37.177-38.505V84.499H273.124z"/>
<path opacity="0.4" fill="#FBB03C" d="M83.658,170.97v54.439c0,18.924,20.912,38.509,37.177,38.509h61.742h61.743
	c16.264,0,37.178-19.584,37.178-38.509V170.97H83.658z"/>
<path fill="none" stroke="#676767" stroke-width="2.234" stroke-linecap="round" stroke-linejoin="round" stroke-miterlimit="10" d="
	M155.998,229.906l-63.822-29.228c-6.558-3.004-9.438-10.756-6.437-17.314l31.605-69.009c3.003-6.561,10.755-9.44,17.312-6.438
	l69.009,31.608c2.693,1.23,4.765,3.264,6.068,5.688"/>
<path fill="none" stroke="#676767" stroke-width="2.234" stroke-linecap="round" stroke-linejoin="round" stroke-miterlimit="10" d="
	M251.674,244.654l-86.746,5.801c-4.155,0.275-7.749-2.869-8.027-7.023l-5.799-86.746c-0.278-4.158,2.864-7.751,7.021-8.031
	l86.746-5.801c4.157-0.275,7.75,2.869,8.029,7.027l5.799,86.742C258.975,240.782,255.831,244.375,251.674,244.654z"/>
<path opacity="0.2" fill="#FAED24" d="M138.893,56.508c-18.356-25.41-53.839-31.13-79.252-12.77
	c-25.411,18.354-31.13,53.838-12.773,79.248L138.893,56.508z"/>
<path fill="none" stroke="#676767" stroke-width="2.234" stroke-linecap="round" stroke-linejoin="round" stroke-miterlimit="10" d="
	M109.402,84.499l24.044-17.367c-18.358-25.414-53.84-31.13-79.253-12.773c-25.412,18.359-31.131,53.837-12.772,79.25l33.867-24.463"
	/>
<line fill="none" stroke="#676767" stroke-width="2.234" stroke-linecap="round" stroke-linejoin="round" stroke-miterlimit="10" x1="237.334" y1="155.386" x2="242.396" y2="231.119"/>
<ellipse opacity="0.2" fill="#676767" cx="174.206" cy="352.502" rx="121.259" ry="9.737"/>
<path fill="none" stroke="#676767" stroke-width="4.4681" stroke-linecap="round" stroke-linejoin="round" stroke-miterlimit="10" d="
	M273.124,84.499v147.386c0,18.924-20.911,38.505-37.178,38.505h-10.619l-92.615,60.195V270.39h-20.248
	c-16.266,0-37.177-19.581-37.177-38.505V84.499H273.124z"/>
<path fill="#676767" d="M364.867,269.323V84.506h27.77c12.369,0,22.224,0.953,29.568,2.869c7.42,1.917,13.686,5.153,18.792,9.7
	c5.188,4.708,9.298,10.572,12.331,17.591c3.112,7.106,4.667,14.288,4.667,21.553c0,13.245-5.068,24.457-15.2,33.635
	c9.814,3.349,17.554,9.218,23.221,17.593c5.747,8.301,8.619,17.958,8.619,28.973c0,14.443-5.109,26.649-15.322,36.624
	c-6.146,6.152-13.046,10.417-20.707,12.813c-8.381,2.312-18.875,3.466-31.484,3.466H364.867z M392.757,163.869h8.739
	c10.372,0,17.974-2.295,22.805-6.883c4.825-4.588,7.242-11.351,7.242-20.294c0-8.692-2.477-15.298-7.422-19.81
	c-4.951-4.503-12.134-6.761-21.546-6.761h-9.818V163.869z M392.757,243.112h17.24c12.605,0,21.863-2.474,27.77-7.422
	c6.223-5.349,9.336-12.13,9.336-20.349c0-7.978-2.993-14.68-8.978-20.115c-5.824-5.343-16.241-8.013-31.244-8.013h-14.124V243.112z"
	/>
<path fill="#676767" d="M577.258,152.733h27.054v116.589h-27.054v-12.207c-11.093,10.374-23.025,15.562-35.79,15.562
	c-16.122,0-29.447-5.827-39.98-17.48c-10.456-11.89-15.683-26.732-15.683-44.53c0-17.473,5.227-32.034,15.683-43.69
	c10.452-11.65,23.538-17.473,39.262-17.473c13.564,0,25.736,5.583,36.509,16.753V152.733z M513.336,210.668
	c0,11.179,2.992,20.272,8.979,27.297c6.143,7.099,13.886,10.651,23.221,10.651c9.976,0,18.036-3.432,24.183-10.291
	c6.142-7.103,9.215-16.118,9.215-27.057c0-10.933-3.073-19.947-9.215-27.051c-6.146-6.942-14.125-10.417-23.943-10.417
	c-9.258,0-16.997,3.517-23.22,10.538C516.408,191.441,513.336,200.216,513.336,210.668z"/>
<path fill="#676767" d="M615.481,152.733h26.931v10.416c4.947-5.186,9.338-8.738,13.168-10.656c3.91-1.994,8.539-2.989,13.889-2.989
	c7.1,0,14.521,2.312,22.262,6.942l-12.326,24.656c-5.109-3.666-10.097-5.504-14.967-5.504c-14.682,0-22.025,11.093-22.025,33.279
	v60.446h-26.931V152.733z"/>
<path fill="#676767" d="M729.836,67.146v123.293l37.949-37.706h36.15l-50.638,48.961l54.347,67.628h-34.956l-38.54-49.195
	l-4.312,4.307v44.888h-26.935V67.146H729.836z"/>
<path fill="#676767" d="M915.323,217.372h-83.55c0.716,9.578,3.831,17.196,9.338,22.864c5.506,5.587,12.566,8.38,21.188,8.38
	c6.702,0,12.243-1.592,16.634-4.787c4.311-3.191,9.22-9.098,14.726-17.717l22.743,12.687c-3.514,5.988-7.223,11.118-11.133,15.383
	c-3.909,4.27-8.102,7.78-12.57,10.536c-4.468,2.755-9.294,4.77-14.481,6.043c-5.188,1.276-10.813,1.917-16.878,1.917
	c-17.396,0-31.359-5.589-41.896-16.76c-10.534-11.249-15.801-26.171-15.801-44.771c0-18.431,5.105-33.354,15.325-44.77
	c10.293-11.249,23.937-16.874,40.933-16.874c17.161,0,30.727,5.463,40.701,16.396c9.896,10.854,14.845,25.901,14.845,45.128
	L915.323,217.372z M887.674,195.346c-3.754-14.364-12.808-21.546-27.172-21.546c-3.277,0-6.345,0.504-9.215,1.499
	c-2.875,0.999-5.49,2.438-7.842,4.311c-2.355,1.877-4.371,4.128-6.048,6.763c-1.675,2.629-2.949,5.625-3.826,8.974H887.674z"/>
<path fill="#676767" d="M1037.896,217.372h-83.551c0.716,9.578,3.832,17.196,9.342,22.864c5.503,5.587,12.563,8.38,21.185,8.38
	c6.702,0,12.244-1.592,16.638-4.787c4.307-3.191,9.216-9.098,14.723-17.717l22.741,12.687c-3.513,5.988-7.221,11.118-11.131,15.383
	c-3.91,4.27-8.103,7.78-12.571,10.536c-4.468,2.755-9.294,4.77-14.481,6.043c-5.188,1.276-10.812,1.917-16.878,1.917
	c-17.396,0-31.359-5.589-41.893-16.76c-10.537-11.249-15.805-26.171-15.805-44.771c0-18.431,5.106-33.354,15.325-44.77
	c10.293-11.249,23.937-16.874,40.933-16.874c17.161,0,30.727,5.463,40.701,16.396c9.896,10.854,14.845,25.901,14.845,45.128
	L1037.896,217.372z M1010.244,195.346c-3.747-14.364-12.806-21.546-27.171-21.546c-3.271,0-6.344,0.504-9.216,1.499
	c-2.875,0.999-5.488,2.438-7.84,4.311c-2.356,1.877-4.372,4.128-6.043,6.763c-1.68,2.629-2.954,5.625-3.831,8.974H1010.244z"/>
<path fill="#676767" d="M1076.04,332.771h-26.935V152.733h26.935v12.693c10.611-10.614,22.663-15.922,36.15-15.922
	c16.04,0,29.247,5.906,39.619,17.713c10.533,11.733,15.805,26.536,15.805,44.411c0,17.477-5.232,32.04-15.683,43.69
	c-10.376,11.574-23.461,17.36-39.262,17.36c-13.648,0-25.856-5.469-36.63-16.399V332.771z M1140.081,211.749
	c0-11.173-3.036-20.273-9.098-27.292c-6.144-7.105-13.884-10.657-23.222-10.657c-9.896,0-17.916,3.432-24.061,10.297
	c-6.146,6.864-9.22,15.878-9.22,27.051c0,10.939,3.073,19.954,9.22,27.057c6.062,6.942,14.043,10.411,23.938,10.411
	c9.338,0,17.038-3.51,23.104-10.531C1136.966,231.061,1140.081,222.284,1140.081,211.749z"/>
</svg>
